<?xml version="1.0" encoding="utf-8" standalone="no"?>
<svg xmlns="http://www.w3.org/2000/svg" version="1.1">
   <g font-size="30" font="sans-serif" fill="black" stroke="none" text-anchor="middle">
<g transform="translate(389.700000 326.500000)">
   <circle r="214.000000" stroke="black" stroke-width="2" fill="white" />
   <circle r="10.000000" stroke="black" stroke-width="2" fill="white" />
   <line x1="0" y1="-5.000000" x2="0" y2="5.000000" stroke="black" stroke-width="2" />
   <line x1="-5.000000" y1="0" x2="5.000000" y2="0" stroke="black" stroke-width="2" />
   <g transform="rotate(0.000000 0 0) translate(0 -171.200000)">
      <circle r="27.820000" stroke="black" stroke-width="2" fill="white" />
      <text y="10" fill="black">C</text>
      <text y="60" fill="black">0</text>
   </g>
   <g transform="rotate(18.947368 0 0) translate(0 -171.200000)">
      <circle r="27.820000" stroke="black" stroke-width="2" fill="white" />
      <text y="10" fill="black">C♯</text>
      <text y="60" fill="black">7♯</text>
   </g>
   <g transform="rotate(37.894737 0 0) translate(0 -171.200000)">
      <circle r="27.820000" stroke="black" stroke-width="2" fill="white" />
      <text y="10" fill="black">D♭</text>
      <text y="60" fill="black">5♭</text>
   </g>
   <g transform="rotate(56.842105 0 0) translate(0 -171.200000)">
      <circle r="27.820000" stroke="black" stroke-width="2" fill="white" />
      <text y="10" fill="black">D</text>
      <text y="60" fill="black">2♯</text>
   </g>
   <g transform="rotate(75.789474 0 0) translate(0 -171.200000)">
      <circle r="27.820000" stroke="black" stroke-width="2" fill="white" />
      <text y="10" fill="black">D♯</text>
      <text y="60" fill="black"></text>
   </g>
   <g transform="rotate(94.736842 0 0) translate(0 -171.200000)">
      <circle r="27.820000" stroke="black" stroke-width="2" fill="white" />
      <text y="10" fill="black">E♭</text>
      <text y="60" fill="black">3♭</text>
   </g>
   <g transform="rotate(113.684211 0 0) translate(0 -171.200000)">
      <circle r="27.820000" stroke="black" stroke-width="2" fill="white" />
      <text y="10" fill="black">E</text>
      <text y="60" fill="black">4♯</text>
   </g>
   <g transform="rotate(132.631579 0 0) translate(0 -171.200000)">
      <circle r="27.820000" stroke="black" stroke-width="2" fill="white" />
      <text y="10" fill="black">E♯,F♭</text>
      <text y="60" fill="black"></text>
   </g>
   <g transform="rotate(151.578947 0 0) translate(0 -171.200000)">
      <circle r="27.820000" stroke="black" stroke-width="2" fill="white" />
      <text y="10" fill="black">F</text>
      <text y="60" fill="black">1♭</text>
   </g>
   <g transform="rotate(170.526316 0 0) translate(0 -171.200000)">
      <circle r="27.820000" stroke="black" stroke-width="2" fill="white" />
      <text y="10" fill="black">F♯</text>
      <text y="60" fill="black">6♯</text>
   </g>
   <g transform="rotate(189.473684 0 0) translate(0 -171.200000)">
      <circle r="27.820000" stroke="black" stroke-width="2" fill="white" />
      <text y="10" fill="black">G♭</text>
      <text y="60" fill="black"></text>
   </g>
   <g transform="rotate(208.421053 0 0) translate(0 -171.200000)">
      <circle r="27.820000" stroke="black" stroke-width="2" fill="white" />
      <text y="10" fill="black">G</text>
      <text y="60" fill="black">1♯</text>
   </g>
   <g transform="rotate(227.368421 0 0) translate(0 -171.200000)">
      <circle r="27.820000" stroke="black" stroke-width="2" fill="white" />
      <text y="10" fill="black">G♯</text>
      <text y="60" fill="black"></text>
   </g>
   <g transform="rotate(246.315789 0 0) translate(0 -171.200000)">
      <circle r="27.820000" stroke="black" stroke-width="2" fill="white" />
      <text y="10" fill="black">A♭</text>
      <text y="60" fill="black">4♭</text>
   </g>
   <g transform="rotate(265.263158 0 0) translate(0 -171.200000)">
      <circle r="27.820000" stroke="black" stroke-width="2" fill="white" />
      <text y="10" fill="black">A</text>
      <text y="60" fill="black">3♯</text>
   </g>
   <g transform="rotate(284.210526 0 0) translate(0 -171.200000)">
      <circle r="27.820000" stroke="black" stroke-width="2" fill="white" />
      <text y="10" fill="black">A♯</text>
      <text y="60" fill="black"></text>
   </g>
   <g transform="rotate(303.157895 0 0) translate(0 -171.200000)">
      <circle r="27.820000" stroke="black" stroke-width="2" fill="white" />
      <text y="10" fill="black">B</text>
      <text y="60" fill="black">2♭</text>
   </g>
   <g transform="rotate(322.105263 0 0) translate(0 -171.200000)">
      <circle r="27.820000" stroke="black" stroke-width="2" fill="white" />
      <text y="10" fill="black">H</text>
      <text y="60" fill="black">5♯</text>
   </g>
   <g transform="rotate(341.052632 0 0) translate(0 -171.200000)">
      <circle r="27.820000" stroke="black" stroke-width="2" fill="white" />
      <text y="10" fill="black">H♯,C♭</text>
      <text y="60" fill="black"></text>
   </g>
</g>
<g transform="translate(389.700000 793.500000)">
   <circle r="214.000000" stroke="black" stroke-width="2" fill="white" />
   <circle r="10.000000" stroke="black" stroke-width="2" fill="white" />
   <line x1="0" y1="-5.000000" x2="0" y2="5.000000" stroke="black" stroke-width="2" />
   <line x1="-5.000000" y1="0" x2="5.000000" y2="0" stroke="black" stroke-width="2" />
   <g transform="rotate(0.000000 0 0) translate(0 -171.200000)">
      <circle r="29.960000" stroke="blue" stroke-width="8" fill="white" />
      <circle r="27.820000" stroke="black" stroke-width="2" fill="white" />
   <line x1="0" y1="-5.000000" x2="0" y2="5.000000" stroke="black" stroke-width="2" />
   <line x1="-5.000000" y1="0" x2="5.000000" y2="0" stroke="black" stroke-width="2" />
   </g>
   <g transform="rotate(56.842105 0 0) translate(0 -171.200000)">
      <circle r="27.820000" stroke="black" stroke-width="2" fill="white" />
   <line x1="0" y1="-5.000000" x2="0" y2="5.000000" stroke="black" stroke-width="2" />
   <line x1="-5.000000" y1="0" x2="5.000000" y2="0" stroke="black" stroke-width="2" />
   </g>
   <g transform="rotate(113.684211 0 0) translate(0 -171.200000)">
      <circle r="27.820000" stroke="black" stroke-width="2" fill="white" />
   <line x1="0" y1="-5.000000" x2="0" y2="5.000000" stroke="black" stroke-width="2" />
   <line x1="-5.000000" y1="0" x2="5.000000" y2="0" stroke="black" stroke-width="2" />
   </g>
   <g transform="rotate(151.578947 0 0) translate(0 -171.200000)">
      <circle r="27.820000" stroke="black" stroke-width="2" fill="white" />
   <line x1="0" y1="-5.000000" x2="0" y2="5.000000" stroke="black" stroke-width="2" />
   <line x1="-5.000000" y1="0" x2="5.000000" y2="0" stroke="black" stroke-width="2" />
   </g>
   <g transform="rotate(208.421053 0 0) translate(0 -171.200000)">
      <circle r="27.820000" stroke="black" stroke-width="2" fill="white" />
   <line x1="0" y1="-5.000000" x2="0" y2="5.000000" stroke="black" stroke-width="2" />
   <line x1="-5.000000" y1="0" x2="5.000000" y2="0" stroke="black" stroke-width="2" />
   </g>
   <g transform="rotate(265.263158 0 0) translate(0 -171.200000)">
      <circle r="29.960000" stroke="red" stroke-width="8" fill="white" />
      <circle r="27.820000" stroke="black" stroke-width="2" fill="white" />
   <line x1="0" y1="-5.000000" x2="0" y2="5.000000" stroke="black" stroke-width="2" />
   <line x1="-5.000000" y1="0" x2="5.000000" y2="0" stroke="black" stroke-width="2" />
   </g>
   <g transform="rotate(322.105263 0 0) translate(0 -171.200000)">
      <circle r="27.820000" stroke="black" stroke-width="2" fill="white" />
   <line x1="0" y1="-5.000000" x2="0" y2="5.000000" stroke="black" stroke-width="2" />
   <line x1="-5.000000" y1="0" x2="5.000000" y2="0" stroke="black" stroke-width="2" />
   </g>
   <rect x="-17.833333" y="-135.533333" width="35.666667" height="35.666667" stroke="black" stroke-width="2" fill="white"/>
</g>
</g>
</svg>
